# xmcd
#
# Track frame offsets:
# 150
# 11804
# 24953
# 40189
# 53505
# 63890
# 75958
# 88611
# 99698
# 112968
# 123465
# 136257
# 148973
# 159567
# 175624
# 189148
# 201460
# 215872
# 228160
# 236472
#
# Disc length: 3379 seconds
#
#
# Revision: 0
# Processed by: cddbd v1.5.1PL0 Copyright (c) Steve Scherf et al.
# Submitted via: FreeRIP 2.941 
#
DISCID=040d3114
DTITLE=Various Artist - 20 Country Greats
DYEAR=0001
DGENRE=Country
TTITLE0=Patsy Cline/ Walking after midnight
TTITLE1=Don Williams/ Ruby Tuesday
TTITLE2=Kenny Rodgers/ For the good times
TTITLE3=Hoyt Axton - Della and the dealer
TTITLE4=Patsy Cline - Lovesick Blues
TTITLE5=Merle Haggard - Okie from Muskogee
TTITLE6=Faron Young - Four in the morning
TTITLE7=Conway Twitty - It's only make belive
TTITLE8=Alabama - Patches
TTITLE9=Waylon Jennings - Dream baby
TTITLE10=Kenny Rodgers and the First Edition - Ruby, don't take your love to town
TTITLE11=Charlie Rich - The most beautiful girl in the world
TTITLE12=Don Williams - There's always something there to remind me
TTITLE13=La Toya Jackson - These boots are made for walking
TTITLE14=Lynn Anderson - Rose garden
TTITLE15=Charlie Rich - Behind closed doors
TTITLE16=Loretta Lynn - Coal miner's daughter
TTITLE17=Eris CBS unart cat - Reuben james
TTITLE18=George Hamilton iV - Abiline
TTITLE19=Charley McCoy - You were always on my mind
EXTD=
EXTT0=
EXTT1=
EXTT2=
EXTT3=
EXTT4=
EXTT5=
EXTT6=
EXTT7=
EXTT8=
EXTT9=
EXTT10=
EXTT11=
EXTT12=
EXTT13=
EXTT14=
EXTT15=
EXTT16=
EXTT17=
EXTT18=
EXTT19=
PLAYORDER=
